<svg width="175" height="19" viewBox="0 0 175 19" fill="none" xmlns="http://www.w3.org/2000/svg">
<path d="M14.6836 4.11328H9.5625V18H5.44922V4.11328H0.421875V0.9375H14.6836V4.11328Z" fill="black"/>
<path d="M20.8125 18H16.7109V0.9375H20.8125V18Z" fill="black"/>
<path d="M37.4766 12.2227C37.4219 13.4102 37.1016 14.4609 36.5156 15.375C35.9297 16.2812 35.1055 16.9844 34.043 17.4844C32.9883 17.9844 31.7812 18.2344 30.4219 18.2344C28.1797 18.2344 26.4141 17.5039 25.125 16.043C23.8359 14.582 23.1914 12.5195 23.1914 9.85547V9.01172C23.1914 7.33984 23.4805 5.87891 24.0586 4.62891C24.6445 3.37109 25.4844 2.40234 26.5781 1.72266C27.6719 1.03516 28.9375 0.691406 30.375 0.691406C32.4453 0.691406 34.1094 1.23828 35.3672 2.33203C36.625 3.41797 37.3398 4.91797 37.5117 6.83203H33.4102C33.3789 5.79297 33.1172 5.04688 32.625 4.59375C32.1328 4.14062 31.3828 3.91406 30.375 3.91406C29.3516 3.91406 28.6016 4.29688 28.125 5.0625C27.6484 5.82812 27.3984 7.05078 27.375 8.73047V9.9375C27.375 11.7578 27.6016 13.0586 28.0547 13.8398C28.5156 14.6211 29.3047 15.0117 30.4219 15.0117C31.3672 15.0117 32.0898 14.7891 32.5898 14.3438C33.0898 13.8984 33.3555 13.1914 33.3867 12.2227H37.4766Z" fill="black"/>
<path d="M45.2227 11.6484L43.5352 13.5V18H39.4219V0.9375H43.5352V8.46094L44.9648 6.29297L48.6445 0.9375H53.7305L47.9648 8.48438L53.7305 18H48.8555L45.2227 11.6484Z" fill="black"/>
<path d="M65.3555 10.7695H58.8867V14.8359H66.5273V18H54.7734V0.9375H66.5508V4.11328H58.8867V7.71094H65.3555V10.7695Z" fill="black"/>
<path d="M81.832 4.11328H76.7109V18H72.5977V4.11328H67.5703V0.9375H81.832V4.11328Z" fill="black"/>
<path d="M87.9609 18H83.8594V0.9375H87.9609V18Z" fill="black"/>
<path d="M105.07 18H100.98L94.9336 7.38281V18H90.8203V0.9375H94.9336L100.969 11.5547V0.9375H105.07V18Z" fill="black"/>
<path d="M121.641 15.8906C121.008 16.5938 120.082 17.1602 118.863 17.5898C117.645 18.0195 116.309 18.2344 114.855 18.2344C112.621 18.2344 110.836 17.5508 109.5 16.1836C108.164 14.8164 107.449 12.9141 107.355 10.4766L107.344 9C107.344 7.32031 107.641 5.85547 108.234 4.60547C108.828 3.34766 109.676 2.38281 110.777 1.71094C111.887 1.03125 113.168 0.691406 114.621 0.691406C116.746 0.691406 118.395 1.17969 119.566 2.15625C120.746 3.125 121.434 4.57422 121.629 6.50391H117.668C117.527 5.55078 117.223 4.87109 116.754 4.46484C116.285 4.05859 115.621 3.85547 114.762 3.85547C113.73 3.85547 112.934 4.29297 112.371 5.16797C111.809 6.04297 111.523 7.29297 111.516 8.91797V9.94922C111.516 11.6523 111.805 12.9336 112.383 13.793C112.969 14.6445 113.887 15.0703 115.137 15.0703C116.207 15.0703 117.004 14.832 117.527 14.3555V11.707H114.668V8.88281H121.641V15.8906Z" fill="black"/>
<path d="M126.293 14.168C126.918 14.168 127.438 14.3555 127.852 14.7305C128.266 15.0977 128.473 15.5703 128.473 16.1484C128.473 16.7266 128.266 17.2031 127.852 17.5781C127.438 17.9453 126.918 18.1289 126.293 18.1289C125.66 18.1289 125.137 17.9414 124.723 17.5664C124.316 17.1914 124.113 16.7188 124.113 16.1484C124.113 15.5781 124.316 15.1055 124.723 14.7305C125.137 14.3555 125.66 14.168 126.293 14.168Z" fill="black"/>
<path d="M131.297 18V0.9375H136.793C138.301 0.9375 139.656 1.28125 140.859 1.96875C142.062 2.64844 143 3.61328 143.672 4.86328C144.352 6.10547 144.695 7.5 144.703 9.04688V9.83203C144.703 11.3945 144.371 12.7969 143.707 14.0391C143.051 15.2734 142.121 16.2422 140.918 16.9453C139.723 17.6406 138.387 17.9922 136.91 18H131.297ZM135.41 4.11328V14.8359H136.84C138.02 14.8359 138.926 14.418 139.559 13.582C140.191 12.7383 140.508 11.4883 140.508 9.83203V9.09375C140.508 7.44531 140.191 6.20312 139.559 5.36719C138.926 4.53125 138.004 4.11328 136.793 4.11328H135.41Z" fill="black"/>
<path d="M157.395 10.7695H150.926V14.8359H158.566V18H146.812V0.9375H158.59V4.11328H150.926V7.71094H157.395V10.7695Z" fill="black"/>
<path d="M166.863 13.3594L170.262 0.9375H174.855L169.113 18H164.613L158.918 0.9375H163.477L166.863 13.3594Z" fill="black"/>
</svg>
